<?xml version="1.0" encoding="UTF-8"?>
<svg width="1021px" height="445px" viewBox="0 0 1021 445" version="1.1" xmlns="http://www.w3.org/2000/svg" xmlns:xlink="http://www.w3.org/1999/xlink">
    <!-- Generator: Sketch 49.3 (51167) - http://www.bohemiancoding.com/sketch -->
    <title>Group 7</title>
    <desc>Created with Sketch.</desc>
    <defs>
        <path d="M45.6,87.1354229 C35.2214036,82.2050895 27.7713613,72.1107494 26.5702958,60.1728253 C23.0816312,59.6732445 20.4,56.6727374 20.4,53.0459016 L20.4,44.552459 C20.4,40.9848635 22.994744,38.0233029 26.4,37.4520091 L26.4,33.6 C26.4,15.0432324 41.4432324,3.40882291e-15 60,0 C78.5567676,-3.40882291e-15 93.6,15.0432324 93.6,33.6 L93.6,37.4520091 C97.005256,38.0233029 99.6,40.9848635 99.6,44.552459 L99.6,53.0459016 C99.6,56.6727374 96.9183688,59.6732445 93.4297042,60.1728253 C92.2286387,72.1107494 84.7785964,82.2050895 74.4,87.1354229 L74.4,98.3040112 C99.8598106,99.9516353 120,121.123821 120,147 L0,147 C-3.16891798e-15,121.123821 20.1401894,99.9516353 45.6,98.3040112 L45.6,87.1354229 Z" id="path-1"></path>
        <path d="M95.6707285,17.6378765 C120.379075,19.9142048 139.727273,40.6975955 139.727273,66 L19.2727273,66 C19.2727273,40.6975955 38.620925,19.9142048 63.3292715,17.6378765 C63.2693579,18.1613696 63.2386364,18.6928925 63.2386364,19.2310341 C63.2386364,27.5153054 70.5190969,34.2310341 79.5,34.2310341 C88.4809031,34.2310341 95.7613636,27.5153054 95.7613636,19.2310341 C95.7613636,18.6928925 95.7306421,18.1613696 95.6707285,17.6378765 Z" id="path-3"></path>
        <rect id="path-5" x="0" y="0" width="159" height="169"></rect>
        <path d="M12.6338779,93.5540893 C12.6323454,93.3280905 12.6315789,93.1020622 12.6315789,92.8760084 L12.6315789,54.1627962 C12.6315789,51.8443473 12.830242,49.5722987 13.2114737,47.3627447 C10.9545681,29.6683737 19.66222,15.5979372 30.075188,7.84642857 C42.0479062,-1.06205462 62.2207152,-3.63246338 69.2012443,6.95441316 C74.4050182,4.6360535 82.1167213,6.74920297 87.8195489,12.0714286 C93.9126628,18.0895359 98.7033366,31.8025506 94.8713338,42.3541902 C95.3022946,44.5228393 95.528106,46.7639278 95.528106,49.0558714 L95.528106,56.0465756 C94.99798,53.0548049 92.6249593,50.6996837 89.6240602,50.1962282 L89.6240602,50.0964286 C85.9932936,37.0980402 75.3260247,31.1322427 68.8298851,25.2154718 C58.6678836,36.6206452 26.9609869,36.660812 16.2406015,59.15 L16.2406015,65.2105263 C16.2406015,68.8276172 18.9011736,71.8232981 22.3720757,72.3473271 C23.3856831,84.572751 30.9281162,94.9452408 41.5037594,99.9691809 L41.5037594,100.192857 C43.2663887,126.66255 37.5088493,159.824164 0,149.685714 C8.40772812,144.748491 12.7502504,112.405924 12.6315789,93.5535714 L12.633878,93.5540893 Z M70.3759398,99.9691809 C80.9515831,94.9452408 88.4940162,84.572751 89.5076235,72.3473271 C92.9785257,71.8232981 95.6390977,68.8276172 95.6390977,65.2105263 L95.6390977,62.5176369 C96.3066446,76.6744572 99.9771231,90.5469036 106.427661,103.206654 L115.433226,120.880871 C119.836911,129.523493 119.115658,139.430023 114.394888,147.136717 C109.032139,127.331608 91.5351754,112.514917 70.3759398,111.158587 L70.3759398,99.9691809 Z M55.071464,159.946429 L91.4939442,159.946429 L55.071464,159.946429 Z" id="path-7"></path>
        <filter x="-1.3%" y="-4.0%" width="102.8%" height="119.7%" filterUnits="objectBoundingBox" id="filter-9">
            <feOffset dx="0" dy="2" in="SourceAlpha" result="shadowOffsetOuter1"></feOffset>
            <feColorMatrix values="0 0 0 0 0   0 0 0 0 0   0 0 0 0 0  0 0 0 0.2 0" type="matrix" in="shadowOffsetOuter1" result="shadowMatrixOuter1"></feColorMatrix>
            <feMerge>
                <feMergeNode in="shadowMatrixOuter1"></feMergeNode>
                <feMergeNode in="SourceGraphic"></feMergeNode>
            </feMerge>
        </filter>
        <path d="M45.7727273,87.2900369 C35.3720191,82.3491993 27.9012588,72.2418977 26.676964,60.2846496 C23.1721486,59.7857695 20.4772727,56.7725308 20.4772727,53.1298701 L20.4772727,44.6487013 C20.4772727,41.0675921 23.0818453,38.0948135 26.5,37.5213558 L26.5,33.7272727 C26.5,15.1002143 41.6002143,3.42173511e-15 60.2272727,0 C78.8543311,-3.42173511e-15 93.9545455,15.1002143 93.9545455,33.7272727 L93.9545455,37.5213558 C97.3727002,38.0948135 99.9772727,41.0675921 99.9772727,44.6487013 L99.9772727,53.1298701 C99.9772727,56.7725308 97.2823968,59.7857695 93.7775815,60.2846496 C92.5532867,72.2418977 85.0825263,82.3491993 74.6818182,87.2900369 L74.6818182,98.4798757 C100.230465,100.087129 120.454545,121.317485 120.454545,147.271429 L0,147.271429 C-3.17844134e-15,121.317485 20.2240808,100.087129 45.7727273,98.4798757 L45.7727273,87.2900369 Z" id="path-10"></path>
        <path d="M65.0454545,7.84253136 L65.0454545,19.1454545 C65.0454545,27.1284796 71.516975,33.6 79.5,33.6 C87.483025,33.6 93.9545455,27.1284796 93.9545455,19.1454545 L93.9545455,7.84253136 C104.856066,9.05777783 113.227273,12.3980347 113.227273,21.0461538 C113.227273,21.5913996 113.193997,22.1272787 113.128909,22.6535429 C128.913564,30.6815093 139.727273,47.0779161 139.727273,66 L19.2727273,66 C19.2727273,47.0779161 30.0864363,30.6815093 45.8710911,22.6535429 C45.8060031,22.1272787 45.7727273,21.5913996 45.7727273,21.0461538 C45.7727273,12.3980347 54.1439343,9.05777783 65.0454545,7.84253136 Z" id="path-12"></path>
        <rect id="path-14" x="0" y="0" width="159" height="169"></rect>
        <path d="M39.1857268,47.0515228 C40.4981049,46.0632702 48.3396288,45.6844467 49.7532186,44.8436141 C50.1943825,44.5808913 50.5367161,44.3147773 50.8004618,44.0510571 C51.064406,44.3147773 51.4069381,44.5808913 51.848102,44.8436141 C53.2614933,45.6844467 61.1030172,46.0632702 62.4153953,47.0515228 C63.7442452,48.052343 64.7142897,50.348624 64.6081166,52.1439961 C64.480709,54.2982431 62.1399408,59.4385929 56.3149108,60.0306667 C55.0436127,58.6065377 53.0471627,57.6879056 50.8004618,57.6879056 C48.5541579,57.6879056 46.5575094,58.6065377 45.2862113,60.0306667 C39.4613798,59.4385929 37.1206116,54.2982431 36.993204,52.1439961 C36.8870309,50.348624 37.8570754,48.052343 39.1857268,47.0515228 M62.0077702,57.4433361 C62.008564,57.4429371 62.0095563,57.4425381 62.0103501,57.4423386 C62.0093579,57.4425381 62.008564,57.4429371 62.0077702,57.4433361 M39.5856122,57.4403438 C39.5879936,57.4413412 39.5923596,57.4429371 39.5955349,57.444134 C39.5923596,57.4429371 39.5889859,57.4415407 39.5856122,57.4403438 M87.0900094,33.8858597 C86.8566272,30.2815505 86.1372304,26.7235219 85.509718,23.1732734 C85.340635,22.2175369 84.4213947,15.7368421 84.0072207,15.7368421 C83.8675089,21.2504298 83.3862572,26.6802335 82.7656907,32.1632999 C82.580136,33.8024747 82.3858492,35.4420484 82.2580447,37.0870082 C82.1548484,38.415783 82.3388156,40.0212447 82.0191057,41.3065316 C81.6110837,42.9449084 79.5664093,44.4737675 77.9761952,45.0381128 C74.0083004,46.446283 70.6986784,40.6178601 67.3098731,38.9130546 C62.9105387,36.6999592 55.3478431,36.172941 50.8496785,39.0575055 C46.253279,36.172941 38.6905834,36.6999592 34.291249,38.9130546 C30.9026422,40.6178601 27.5928218,46.446283 23.6251254,45.0381128 C22.0349113,44.4737675 19.9898399,42.9449084 19.5822149,41.3065316 C19.2623066,40.0212447 19.4462737,38.415783 19.3432759,37.0870082 C19.2154714,35.4420484 19.0209862,33.8024747 18.8354314,32.1632999 C18.2150633,26.6802335 17.7336133,21.2504298 17.5940999,15.7368421 C17.1797274,15.7368421 16.2602887,22.2175369 16.0914041,23.1732734 C15.4638917,26.7235219 14.7446934,30.2815505 14.5113112,33.8858597 C14.2713799,37.5897124 14.5577495,41.2592535 15.3120742,44.8882989 C15.6722687,46.6220299 16.0929918,48.3457866 16.5440783,50.0577737 C17.0453738,51.9598707 16.3517761,55.6637233 16.5762279,57.6162902 C17.0009201,61.3105676 18.7296553,68.5155953 20.670935,71.6940024 C21.6092268,73.2302425 22.7090604,74.1893701 23.937294,75.4273789 C25.1192876,76.619107 25.6130419,78.4663454 26.8889044,79.735474 C29.2671805,82.1009765 32.7321922,83.5089472 36.2912712,83.8550551 C39.484599,86.5830232 44.7920601,88.3684211 50.8004618,88.3684211 C56.8092604,88.3684211 62.1165232,86.5830232 65.3100494,83.8550551 C68.8687315,83.5089472 72.3339416,82.1009765 74.7124161,79.735474 C75.9880802,78.4663454 76.4818345,76.619107 77.6640266,75.4273789 C78.8920617,74.1893701 79.9918953,73.2302425 80.9303856,71.6940024 C82.8714668,68.5155953 84.6004005,61.3105676 85.0248942,57.6162902 C85.249346,55.6637233 84.5557483,51.9598707 85.0572422,50.0577737 C85.5083288,48.3457866 85.9288534,46.6220299 86.2892464,44.8882989 C87.0431742,41.2592535 87.3297422,37.5897124 87.0900094,33.8858597 Z" id="path-16"></path>
        <path d="M110.484105,23.5083948 C113.735983,20.5205608 114.518733,14.4625042 112.672303,10.5319138 C110.405571,5.70607563 105.805305,5.10149277 101.396898,7.22394745 C97.2417857,9.22472382 93.5429627,9.89124836 88.9925992,8.92183102 C84.6265406,7.99170354 80.4845508,6.35115111 75.9719628,6.08173487 C68.5582125,5.63912249 61.3554088,8.39843385 56.3026305,13.9601552 C55.3385587,15.021182 54.561774,16.2343569 53.8275366,17.4639694 C53.2400273,18.4478198 52.5777623,19.5034343 52.3278472,20.6374281 C52.2089536,21.1766615 52.4302388,22.5071046 52.1626288,22.9489151 C51.8731488,23.4260064 50.7816342,23.8636073 50.3163984,24.217617 C49.3739978,24.935058 48.5574494,25.7447099 47.802336,26.6604044 C46.1986644,28.6048519 45.3159094,30.6358975 44.5735204,33.0411992 C42.1055839,41.0354845 41.8964267,50.5438329 45.0868703,58.3935876 C45.5121435,59.4403819 46.8301126,61.623776 47.6049091,59.382249 C47.7579994,58.9392357 47.4037045,57.4544395 47.4044998,57.007417 C47.4072833,55.3656618 48.3104112,44.4961046 52.2448626,38.4070725 C53.5255541,36.4250497 59.4465505,29.0029625 60.6559647,28.9434264 C61.2967221,29.9651634 67.8018236,36.4934091 84.681735,35.7283455 C92.2978968,35.3831512 98.1549772,31.9495213 99.5614034,30.4610977 C100.180075,33.800536 107.376379,38.7999836 108.472932,40.8570764 C111.640619,46.7995372 112.343264,59.147417 113.552474,59.1242497 C114.761684,59.1010825 115.629732,55.9630099 115.878454,55.3638394 C117.726076,50.9122574 118.040607,45.3250961 117.843578,40.5409533 C117.586505,34.3832689 115.053555,27.7292492 110.484105,23.5083948 Z" id="path-18"></path>
        <path d="M45.7727273,87.2900369 C35.3720191,82.3491993 27.9012588,72.2418977 26.676964,60.2846496 C23.1721486,59.7857695 20.4772727,56.7725308 20.4772727,53.1298701 L20.4772727,44.6487013 C20.4772727,41.0675921 23.0818453,38.0948135 26.5,37.5213558 L26.5,33.7272727 C26.5,15.1002143 41.6002143,3.42173511e-15 60.2272727,0 C78.8543311,-3.42173511e-15 93.9545455,15.1002143 93.9545455,33.7272727 L93.9545455,37.5213558 C97.3727002,38.0948135 99.9772727,41.0675921 99.9772727,44.6487013 L99.9772727,53.1298701 C99.9772727,56.7725308 97.2823968,59.7857695 93.7775815,60.2846496 C92.5532867,72.2418977 85.0825263,82.3491993 74.6818182,87.2900369 L74.6818182,98.4798757 C100.230465,100.087129 120.454545,121.317485 120.454545,147.271429 L0,147.271429 C-3.17844134e-15,121.317485 20.2240808,100.087129 45.7727273,98.4798757 L45.7727273,87.2900369 Z" id="path-20"></path>
        <path d="M99.8779004,18.2115972 C122.540556,22.3197067 139.727273,42.152767 139.727273,66 L19.2727273,66 C19.2727273,41.9358521 36.7735274,21.9592351 59.7418698,18.1034068 C59.6646271,18.5621628 59.625,19.0281226 59.625,19.5 C59.625,26.6244733 68.6581639,32.4 79.8011364,32.4 C90.9441088,32.4 99.9772727,26.6244733 99.9772727,19.5 C99.9772727,19.0651721 99.943624,18.635369 99.8779004,18.2115972 Z" id="path-22"></path>
        <path d="M21.1357394,9.28313827 C21.7724193,15.1076061 26.6174923,19.6363636 32.5,19.6363636 C38.4006792,19.6363636 43.2575045,15.0795834 43.8700403,9.22912443 C43.9193375,8.75827595 43.4035953,7.97727273 42.7572209,7.97727273 C33.7932314,7.97727273 26.9256008,7.97727273 22.3207739,7.97727273 C21.670649,7.97727273 21.0720405,8.70040854 21.1357394,9.28313827 Z" id="path-24"></path>
        <rect id="path-26" x="0" y="0" width="159" height="169"></rect>
        <path d="M51.6575848,112.22585 C52.0025173,114.13175 52.2022951,116.060026 52.0480608,117.94598 C51.8015425,120.958257 51.239193,123.772725 51.5390037,126.820295 C52.1624924,133.158935 54.7924571,139.183489 56.9630607,145.233486 C58.0060229,148.139882 62.5909806,151.560592 60.7102046,153.961182 C58.8294287,156.361772 52.4005101,150.659688 50.9625955,147.895562 C49.4988521,145.081368 48.1675224,142.216832 46.6439476,139.424799 C47.6225011,143.696705 48.1110399,145.50336 49.1235959,149.770068 C49.6522698,151.997949 52.2992358,157.46311 48.1604089,158.349831 C42.7814707,159.502485 42.5728783,150.751725 42.0406079,148.143548 C41.1555614,143.808168 40.1726782,142.124357 38.7269169,137.900877 C38.4388762,141.126284 38.9381249,144.48712 38.2427078,147.680243 C37.8235612,149.605528 35.6225515,151.198122 34.3003763,152.830935 C29.7695396,158.428954 28.6912671,149.037819 27.5420471,146.462473 C25.554207,147.911978 21.2264046,150.784447 18.5751883,148.960666 C16.6174274,147.614033 17.8611352,145.17439 18.315919,143.508472 C19.0486081,140.82533 19.484102,138.171736 17.5253603,135.741121 C15.6686261,137.553959 11.5595515,138.609761 9.17806678,136.877086 C6.16622754,134.686414 8.8076354,131.483442 10.1576011,129.210418 C12.3553414,125.511145 12.4514639,121.804485 12.9735989,117.775805 C13.0478159,117.204265 13.1570164,116.663369 13.2309065,116.046139 C13.4149778,114.510453 14.20946,111.320066 13.6101654,109.858797 C12.9490778,108.246504 12.227505,108.230362 10.7621268,108.597526 C8.68764571,109.11763 6.97869177,110.281775 6.62787723,111.964108 C6.1211088,114.393354 8.77428677,115.351209 8.99105288,117.468558 C9.45793373,122.026097 3.75629842,119.88604 2.06009543,117.841467 C-0.411626748,114.862296 -0.490421066,111.565207 0.930165289,108.176464 C1.69097184,106.362532 2.88956092,104.749144 4.07278348,103.119615 C5.610417,101.002266 6.07173975,100.74755 5.80495069,98.5040738 C5.34428183,94.6316156 4.29968496,91.150945 4.67502055,87.2010596 C5.05722203,83.1835963 6.26431175,79.6033372 8.06154148,75.8715067 C9.41673836,73.0578597 11.9185397,70.4286155 12.9647713,67.5679102 C13.8465484,65.1564473 13.6539764,62.4363697 14.1054907,59.9529514 C14.6910535,56.7324692 15.6493362,53.5757346 16.2178977,50.3489598 C17.3249415,44.0710578 19.9222115,38.0415797 22.8356396,32.198146 C24.4017175,29.0581007 25.8602298,25.8860447 27.9965039,22.9752717 C29.0934124,21.4811715 30.2906937,19.9463057 31.754764,18.683393 C33.0959022,17.5263614 35.507793,16.9933991 36.6658406,15.8743971 C38.8112693,13.8016443 36.9309949,10.1445052 39.645312,7.79323308 C41.3245138,6.33853053 43.0727014,6.01650967 45.2864621,5.66165746 C47.4505268,5.31501308 46.7351659,5.83101252 48.2155836,4.27015526 C49.6502287,2.75827144 50.7383096,0.785654287 53.1740676,0.215483116 C56.2794138,-0.510910578 58.7612713,1.53229398 61.391236,2.5112155 C65.256081,3.94950238 67.6745107,3.53008184 71.4693889,2.32681273 C74.0189246,1.51834066 75.6837406,0.976349731 78.0691487,2.37222944 C79.6103786,3.27399728 80.7965437,5.96096996 82.6745294,6.21842249 C84.9618533,6.53250911 88.1714957,4.38342343 90.7092612,4.46303946 C94.5881649,4.58533625 96.4733435,7.02361143 98.0783282,9.62768495 C98.9793951,11.0897746 99.4884522,10.8465489 100.579476,11.8736231 C101.55149,12.7887971 101.989273,13.9649803 103.024715,14.9143536 C106.821555,18.3958451 111.796713,21.098139 115.878978,24.3793592 C123.497833,30.5037746 125.298986,38.7917762 125.792023,47.2108296 C126.187302,53.9587671 125.572314,61.884803 129.847805,67.9211209 C132.04391,71.021495 134.473129,73.3536155 135.68872,76.9631492 C136.133368,78.282696 137.109633,80.4602355 136.188295,81.7808767 C135.100214,83.3406396 132.363011,83.3562345 131.186,81.8665118 C130.045281,85.4117508 133.936282,90.530706 136.021225,93.4707537 C138.928768,97.5694746 142.696183,101.92127 143.385061,106.781132 C143.659043,108.711342 143.811073,116.581017 138.848666,113.680914 C138.686827,116.315357 138.267354,116.68936 139.053335,119.237347 C139.585932,120.962908 140.304236,124.437286 136.728739,124.123473 C138.086552,127.850105 140.26631,133.034723 138.222562,136.894596 C134.861543,143.242812 131.068953,135.245368 130.059667,132.377002 C130.120806,134.356459 127.999571,137.923859 125.344759,135.171771 C125.554005,138.438764 126.856236,143.487405 124.947191,146.551118 C121.242223,152.498244 117.141976,144.969194 117.004331,141.7851 C116.336378,143.936921 116.839223,149.110322 112.437857,147.911704 C108.633497,146.875875 110.008311,141.821488 110.743943,139.54053 C109.534564,141.687153 108.048261,144.883559 107.81384,147.307607 C107.612114,149.391851 109.583279,154.291109 104.472765,153.373473 C100.551031,152.669514 100.410771,146.799542 100.477795,144.211884 C100.532395,142.11314 102.555546,137.315111 101.185636,135.607333 C93.5298363,138.830825 101.551163,149.675295 94.5976464,152.08621 C92.4695459,152.824095 90.7936137,151.727528 89.9180486,150.16202 C89.809502,149.869821 89.7012825,149.578169 89.5930629,149.28597 C89.834677,148.26382 89.3782585,147.739613 88.2234803,147.713621 C87.492099,146.821703 87.0118133,146.848242 86.5387205,145.51009 C85.1475594,141.574432 87.8569723,136.341935 89.8042709,132.83199 C87.7879864,134.677112 86.1637118,137.211419 83.97578,138.816872 C82.4956892,139.902769 80.3152772,140.212204 78.9322897,138.710991 C77.4178695,137.067234 78.8489182,135.491329 79.6656327,133.992852 C81.4700553,130.682083 84.3131897,128.753515 87.2851413,126.096911 C89.8830652,123.77464 92.1988335,121.16017 94.5034855,118.632703 C95.7111445,117.308666 96.8767503,115.906115 97.918732,114.437405 C93.7773487,112.975136 89.3800335,112.054972 84.8120301,111.762158 L84.8120301,100.572752 C91.4856388,97.4024666 96.9514047,92.1023559 100.330942,85.5508063 C100.577676,77.7275906 101.475402,64.6287725 100.900706,57.3946898 C100.136303,47.7726409 100.063641,42.3991863 93.5665431,34.0712399 C88.223569,27.2228932 73.624626,29.4844262 68.1610084,23.2005052 C65.6807856,26.085834 62.0608242,27.6193318 58.0949525,28.6269807 C54.1761613,29.6220443 50.239061,29.7842859 47.616943,32.5883571 C42.9239403,37.6066295 40.8579599,40.965759 39.4206992,47.228066 C37.8278116,54.1694349 37.4109537,61.0486978 37.8951627,68.0986838 C38.2676477,73.5218196 38.1606067,79.2340947 39.8972539,84.4901189 C43.2198751,91.5299297 48.9096847,97.2330852 55.9398496,100.572752 L55.9398496,111.762158 C54.4944381,111.854811 53.0661163,112.010275 51.6575848,112.22585 Z" id="path-28"></path>
    </defs>
    <g id="Page-1" stroke="none" stroke-width="1" fill="none" fill-rule="evenodd">
        <g id="Artboard" transform="translate(-75.000000, -127.000000)">
            <g id="Group-7" transform="translate(77.000000, 129.000000)">
                <g id="Group-6">
                    <g id="Group-3" transform="translate(104.000000, 68.000000)">
                        <g id="Group-2" transform="translate(0.000000, 62.000000)">
                            <g id="Body" transform="translate(19.000000, 22.000000)">
                                <mask id="mask-2" fill="white">
                                    <use xlink:href="#path-1"></use>
                                </mask>
                                <use fill="#D0C6AC" xlink:href="#path-1"></use>
                                <g id="Skin/ðŸ‘¶ðŸ½-03-Brown" mask="url(#mask-2)" fill="#D08B5B">
                                    <g transform="translate(-19.200000, 0.000000)" id="Color">
                                        <rect x="0" y="0" width="158" height="147"></rect>
                                    </g>
                                </g>
                                <path d="M93.6,56.7688525 L93.6,61.5885246 C93.6,80.1452922 78.5567676,95.1885246 60,95.1885246 C41.4432324,95.1885246 26.4,80.1452922 26.4,61.5885246 L26.4,56.7688525 C26.4,75.3256201 41.4432324,90.3688525 60,90.3688525 C78.5567676,90.3688525 93.6,75.3256201 93.6,56.7688525 Z" id="Neck-Shadow" fill-opacity="0.100000001" fill="#000000" mask="url(#mask-2)"></path>
                            </g>
                            <g id="Clothing/Collar-+-Sweater" transform="translate(0.000000, 103.000000)">
                                <mask id="mask-4" fill="white">
                                    <use xlink:href="#path-3"></use>
                                </mask>
                                <use id="Clothes" fill="#E6E6E6" fill-rule="evenodd" xlink:href="#path-3"></use>
                                <g id="Color/Palette/Blue-03" mask="url(#mask-4)" fill="#25557C" fill-rule="evenodd">
                                    <rect id="ðŸ–Color" x="0" y="0" width="159" height="66"></rect>
                                </g>
                                <path d="M93.9545455,13.3676943 C97.6775831,16.1011115 99.9772727,19.8634359 99.9772727,24.016749 C99.9772727,28.3400964 97.4854327,32.2397861 93.4901917,34.9963001 L90.0875508,32.3258957 L87.3295455,32.5247322 L87.9318182,30.6340693 L87.8849788,30.5973096 C91.5590001,28.7118303 93.9545455,25.6202147 93.9545455,22.1260861 L93.9545455,13.3676943 Z M65.0454545,12.9428996 L65.0454545,22.1260861 C65.0454545,25.6202147 67.4409999,28.7118303 71.1150212,30.5973096 L71.0681818,30.6340693 L71.6704545,32.5247322 L68.9124492,32.3258957 L65.2312121,35.2149434 C61.0473283,32.448021 58.4204545,28.4556929 58.4204545,24.016749 C58.4204545,19.6438662 60.969723,15.7044049 65.0454545,12.9428996 Z" id="Collar" fill="#F2F2F2" fill-rule="evenodd"></path>
                            </g>
                            <g id="Face" transform="translate(46.000000, 49.000000)" fill="#000000">
                                <g id="Mouth/Default" transform="translate(1.196429, 31.416667)" fill-opacity="0.699999988">
                                    <path d="M24.0740741,9.20454545 C24.0740741,13.9491735 27.8464896,17.7954545 32.5,17.7954545 C37.1535104,17.7954545 40.9259259,13.9491735 40.9259259,9.20454545" id="Mouth"></path>
                                </g>
                                <g id="Nose/Default" transform="translate(16.750000, 24.166667)" fill-opacity="0.16">
                                    <path d="M9.71428571,5 C9.71428571,7.76142375 12.9762111,10 17,10 C21.0237889,10 24.2857143,7.76142375 24.2857143,5" id="Nose"></path>
                                </g>
                                <g id="Eyes/Default-ðŸ˜€" transform="translate(0.000000, 4.833333)" fill-opacity="0.599999964">
                                    <ellipse id="Eye" cx="17.9464286" cy="13.5" rx="3.58928571" ry="3.68181818"></ellipse>
                                    <ellipse id="Eye" cx="49.0535714" cy="13.5" rx="3.58928571" ry="3.68181818"></ellipse>
                                </g>
                                <g id="Eyebrow/Outline/Default" fill-opacity="0.599999964">
                                    <g id="I-Browse" transform="translate(7.178571, 3.500000)">
                                        <path d="M2.17166464,6.50916977 C4.51361951,3.29575559 10.9341127,1.49382171 16.4646678,2.8181886 C17.1063711,2.97185321 17.7543219,2.58916008 17.9119066,1.96341957 C18.0694912,1.33767906 17.6770355,0.705846376 17.0353322,0.55218177 C10.6125388,-0.98584377 3.17777388,1.10074902 0.221192507,5.1574969 C-0.161583437,5.6827067 -0.0352565914,6.41105564 0.503351414,6.78430979 C1.04195942,7.15756395 1.78888869,7.03437956 2.17166464,6.50916977 Z" id="Eyebrow" fill-rule="nonzero"></path>
                                        <path d="M36.8680932,6.50916977 C39.2100481,3.29575559 45.6305413,1.49382171 51.1610964,2.8181886 C51.8027996,2.97185321 52.4507505,2.58916008 52.6083351,1.96341957 C52.7659198,1.33767906 52.373464,0.705846376 51.7317608,0.55218177 C45.3089673,-0.98584377 37.8742025,1.10074902 34.9176211,5.1574969 C34.5348451,5.6827067 34.661172,6.41105564 35.19978,6.78430979 C35.738388,7.15756395 36.4853173,7.03437956 36.8680932,6.50916977 Z" id="Eyebrow" fill-rule="nonzero" transform="translate(43.669735, 3.522866) scale(-1, 1) translate(-43.669735, -3.522866) "></path>
                                    </g>
                                </g>
                            </g>
                            <g id="Top">
                                <mask id="mask-6" fill="white">
                                    <use xlink:href="#path-5"></use>
                                </mask>
                                <g id="Mask"></g>
                                <g id="Top/Long-Hair/Straight" mask="url(#mask-6)">
                                    <g transform="translate(-0.602273, 0.000000)">
                                        <g id="Hair" stroke-width="1" fill="none" fill-rule="evenodd" transform="translate(24.060150, 9.053571)">
                                            <mask id="mask-8" fill="white">
                                                <use xlink:href="#path-7"></use>
                                            </mask>
                                            <use fill="#272C2E" xlink:href="#path-7"></use>
                                            <g id="Color/Hair/Brown-Dark" mask="url(#mask-8)" fill="#4A312C">
                                                <g transform="translate(-23.458647, -9.053571)" id="Color">
                                                    <rect x="0" y="0" width="159" height="169"></rect>
                                                </g>
                                            </g>
                                        </g>
                                        <path d="M40.3007519,68.2035714 C51.0211373,45.7143834 82.728034,45.6742166 92.8900355,34.2690432 C99.3729602,40.1737779 110.010061,46.1273399 113.661965,59.0707608 C110.010061,47.8430259 99.3729602,43.8786117 92.8900355,38.7543344 C82.728034,48.6520307 51.0211373,48.6868885 40.3007519,68.2035714 Z" id="Shadow" fill-opacity="0.16" fill="#000000" fill-rule="evenodd"></path>
                                        <g id="Facial-Hair/-Blank" fill="none" transform="translate(29.473684, 43.457143)"></g>
                                        <g id="Top/_Resources/Prescription-02" fill="none" transform="translate(37.293233, 51.303571)" fill-rule="evenodd" stroke-width="1">
                                            <g id="Wayfarers" filter="url(#filter-9)" transform="translate(3.591549, 4.277778)" fill="#252C2F">
                                                <path d="M20.3521127,25.0555556 L18.7012869,25.0555556 C10.3644406,25.0555556 5.38732394,20.3719563 5.38732394,12.5277778 C5.38732394,6.18872222 6.47496824,0 19.4721416,0 L21.2320838,0 C34.2292571,0 35.3169014,6.18872222 35.3169014,12.5277778 C35.3169014,19.9030595 29.1641434,25.0555556 20.3521127,25.0555556 Z M19.3856032,3.66666667 C7.78169014,3.66666667 7.78169014,7.84728749 7.78169014,13.139836 C7.78169014,17.4606317 9.64705347,22.6111111 18.5389409,22.6111111 L20.3521127,22.6111111 C27.7536424,22.6111111 32.9225352,18.7165228 32.9225352,13.139836 C32.9225352,7.84728749 32.9225352,3.66666667 21.3186222,3.66666667 L19.3856032,3.66666667 Z" id="Left" fill-rule="nonzero"></path>
                                                <path d="M57.4647887,25.0555556 L55.8139629,25.0555556 C47.4771166,25.0555556 42.5,20.3719563 42.5,12.5277778 C42.5,6.18872222 43.5876443,0 56.5848176,0 L58.3447598,0 C71.3419332,0 72.4295775,6.18872222 72.4295775,12.5277778 C72.4295775,19.9030595 66.2768194,25.0555556 57.4647887,25.0555556 Z M56.4982792,3.66666667 C44.8943662,3.66666667 44.8943662,7.84728749 44.8943662,13.139836 C44.8943662,17.4606317 46.7616625,22.6111111 55.6516169,22.6111111 L57.4647887,22.6111111 C64.8663185,22.6111111 70.0352113,18.7165228 70.0352113,13.139836 C70.0352113,7.84728749 70.0352113,3.66666667 58.4312982,3.66666667 L56.4982792,3.66666667 Z" id="Right" fill-rule="nonzero"></path>
                                                <path d="M1.76856594,3.52706713 C2.18241037,3.11440028 6.70993918,0 19.4542254,0 C30.1399008,0 32.4018966,1.13218855 35.8258403,2.84281611 L36.0764682,2.96908883 C36.3145149,3.05495603 37.5318366,3.47711822 38.9557757,3.5235415 C40.2530638,3.46670236 41.3626877,3.10774561 41.6869319,2.99273191 C45.5949526,1.05238613 49.420375,0 58.3626761,0 C71.1069622,0 75.634491,3.11440028 76.0483355,3.52706713 C77.0263524,3.52706713 77.8169014,4.31536663 77.8169014,5.29060069 L77.8169014,7.05413426 C77.8169014,8.02936832 77.0263524,8.81766782 76.0483355,8.81766782 C76.0483355,8.81766782 71.9171814,8.81766782 71.9171814,10.5812014 C71.9171814,12.344735 70.7426376,8.02936832 70.7426376,7.05413426 L70.7426376,5.3364682 C68.5857667,4.49374537 64.7247532,2.92488494 58.3626761,2.92488494 C51.2744333,2.92488494 47.7443195,4.2081283 44.7161616,5.48235336 L44.750024,5.56571193 L44.7485294,6.7795205 L43.4213321,10.0488874 L41.7819839,9.387177 C41.6355721,9.32807898 41.319661,9.2219062 40.8816183,9.11160825 C39.6604445,8.80412008 38.4049805,8.71051442 37.2946979,8.94318847 C36.8873604,9.02855132 36.5094326,9.15664965 36.1625992,9.32966957 L34.5809226,10.1186984 L32.9983619,6.96434634 L33.068646,5.56218486 L33.1169699,5.443068 C30.505454,4.20069451 28.0974467,2.92488494 19.4542254,2.92488494 C13.0924817,2.92488494 9.23155731,4.49315759 7.07426376,5.33589656 L7.07426376,7.05413426 C7.07426376,8.02936832 5.30569782,12.344735 5.30569782,10.5812014 C5.30569782,8.81766782 1.76856594,8.81766782 1.76856594,8.81766782 C0.792317542,8.81766782 0,8.02936832 0,7.05413426 L0,5.29060069 C0,4.31536663 0.792317542,3.52706713 1.76856594,3.52706713 Z" id="Stuff" fill-rule="nonzero"></path>
                                            </g>
                                        </g>
                                    </g>
                                </g>
                            </g>
                        </g>
                        <text id="Design" font-family="IBMPlexSans, IBM Plex Sans" font-size="48" font-weight="normal" fill="#25557C">
                            <tspan x="6.228" y="49">Design</tspan>
                        </text>
                    </g>
                    <circle id="Oval" stroke="#25557C" stroke-width="3" cx="183" cy="183" r="183"></circle>
                </g>
                <g id="Group-5" transform="translate(651.000000, 0.000000)">
                    <g id="Group" transform="translate(103.000000, 129.000000)">
                        <g id="Body" transform="translate(19.272727, 21.728571)">
                            <mask id="mask-11" fill="white">
                                <use xlink:href="#path-10"></use>
                            </mask>
                            <use fill="#D0C6AC" xlink:href="#path-10"></use>
                            <g id="Skin/ðŸ‘¶ðŸ½-03-Brown" mask="url(#mask-11)" fill="#D08B5B">
                                <g transform="translate(-19.272727, 0.000000)" id="Color">
                                    <rect x="0" y="0" width="159" height="147"></rect>
                                </g>
                            </g>
                            <path d="M93.9545455,56.8084416 L93.9545455,61.637013 C93.9545455,80.2640714 78.8543311,95.3642857 60.2272727,95.3642857 C41.6002143,95.3642857 26.5,80.2640714 26.5,61.637013 L26.5,56.8084416 C26.5,75.4354999 41.6002143,90.5357143 60.2272727,90.5357143 C78.8543311,90.5357143 93.9545455,75.4354999 93.9545455,56.8084416 Z" id="Neck-Shadow" fill-opacity="0.100000001" fill="#000000" mask="url(#mask-11)"></path>
                        </g>
                        <g id="Clothing/Hoodie" transform="translate(0.000000, 102.607143)">
                            <mask id="mask-13" fill="white">
                                <use xlink:href="#path-12"></use>
                            </mask>
                            <use id="Hoodie" fill="#B7C1DB" fill-rule="evenodd" xlink:href="#path-12"></use>
                            <g id="Color/Palette/Pastel-Blue" mask="url(#mask-13)" fill="#B1E2FF" fill-rule="evenodd">
                                <rect id="ðŸ–Color" x="0" y="0" width="159" height="66"></rect>
                            </g>
                            <path d="M61.4318182,37.0434319 L61.4318182,66 L57.2159091,66 L57.2159091,34.8901575 C58.5431701,35.6760346 59.9543043,36.3964727 61.4318182,37.0434319 Z M101.784091,34.8901575 L101.784091,59.0920455 C101.784091,60.2562366 100.840328,61.2 99.6761364,61.2 C98.5119452,61.2 97.5681818,60.2562366 97.5681818,59.0920455 L97.5681818,37.0434319 C99.0456957,36.3964727 100.45683,35.6760346 101.784091,34.8901575 Z" id="Straps" fill="#F4F4F4" fill-rule="evenodd" mask="url(#mask-13)"></path>
                            <path d="M79.4919401,40.7999995 C59.3412529,40.7974436 39.4488636,31.210429 39.4488636,19.3846154 C39.4488636,12.7457308 45.7181069,9.34270691 54.7828073,7.63461222 C49.3111274,9.64467586 45.7727273,13.0236327 45.7727273,18.6461538 C45.7727273,30.8794483 62.5233755,40.7968596 79.4919401,40.7999993 Z M104.217193,7.63461222 C113.281893,9.34270691 119.551136,12.7457308 119.551136,19.3846154 C119.551136,31.210429 99.6587471,40.7974436 79.5080599,40.7999995 C96.4766245,40.7968596 113.227273,30.8794483 113.227273,18.6461538 C113.227273,13.0236327 109.688873,9.64467586 104.217193,7.63461222 Z" id="Shadow" fill-opacity="0.16" fill="#000000" fill-rule="evenodd" mask="url(#mask-13)"></path>
                        </g>
                        <g id="Face" transform="translate(45.772727, 49.492857)" fill="#000000">
                            <g id="Mouth/Default" transform="translate(1.204545, 31.385714)" fill-opacity="0.699999988">
                                <path d="M24.0740741,9.20454545 C24.0740741,13.9491735 27.8464896,17.7954545 32.5,17.7954545 C37.1535104,17.7954545 40.9259259,13.9491735 40.9259259,9.20454545" id="Mouth"></path>
                            </g>
                            <g id="Nose/Default" transform="translate(16.863636, 24.142857)" fill-opacity="0.16">
                                <path d="M9.71428571,4.66666667 C9.71428571,7.2439955 12.9762111,9.33333333 17,9.33333333 C21.0237889,9.33333333 24.2857143,7.2439955 24.2857143,4.66666667" id="Nose"></path>
                            </g>
                            <g id="Eyes/Default-ðŸ˜€" transform="translate(0.000000, 4.828571)" fill-opacity="0.599999964">
                                <ellipse id="Eye" cx="17.9464286" cy="13.5" rx="3.58928571" ry="3.68181818"></ellipse>
                                <ellipse id="Eye" cx="49.0535714" cy="13.5" rx="3.58928571" ry="3.68181818"></ellipse>
                            </g>
                            <g id="Eyebrow/Outline/Default" fill-opacity="0.599999964">
                                <g id="I-Browse" transform="translate(7.178571, 3.500000)">
                                    <path d="M2.17166464,6.50916977 C4.51361951,3.29575559 10.9341127,1.49382171 16.4646678,2.8181886 C17.1063711,2.97185321 17.7543219,2.58916008 17.9119066,1.96341957 C18.0694912,1.33767906 17.6770355,0.705846376 17.0353322,0.55218177 C10.6125388,-0.98584377 3.17777388,1.10074902 0.221192507,5.1574969 C-0.161583437,5.6827067 -0.0352565914,6.41105564 0.503351414,6.78430979 C1.04195942,7.15756395 1.78888869,7.03437956 2.17166464,6.50916977 Z" id="Eyebrow" fill-rule="nonzero"></path>
                                    <path d="M36.8680932,6.50916977 C39.2100481,3.29575559 45.6305413,1.49382171 51.1610964,2.8181886 C51.8027996,2.97185321 52.4507505,2.58916008 52.6083351,1.96341957 C52.7659198,1.33767906 52.373464,0.705846376 51.7317608,0.55218177 C45.3089673,-0.98584377 37.8742025,1.10074902 34.9176211,5.1574969 C34.5348451,5.6827067 34.661172,6.41105564 35.19978,6.78430979 C35.738388,7.15756395 36.4853173,7.03437956 36.8680932,6.50916977 Z" id="Eyebrow" fill-rule="nonzero" transform="translate(43.669735, 3.522866) scale(-1, 1) translate(-43.669735, -3.522866) "></path>
                                </g>
                            </g>
                        </g>
                        <g id="Top">
                            <mask id="mask-15" fill="white">
                                <use xlink:href="#path-14"></use>
                            </mask>
                            <g id="Mask"></g>
                            <g id="Top/Short-Hair/Short-Waved" mask="url(#mask-15)">
                                <g transform="translate(-0.602273, 0.000000)">
                                    <g id="Facial-Hair/Beard-Magestic" stroke="none" fill="none" transform="translate(29.473684, 43.457143)">
                                        <mask id="mask-17" fill="white">
                                            <use xlink:href="#path-16"></use>
                                        </mask>
                                        <use id="Glorious-Beard" fill="#5E7AA9" fill-rule="evenodd" xlink:href="#path-16"></use>
                                        <g id="Color/Hair/Blonde-Golden" mask="url(#mask-17)" fill="#D6B370" fill-rule="evenodd">
                                            <rect id="Color" x="0" y="0" width="101" height="92"></rect>
                                        </g>
                                    </g>
                                    <mask id="mask-19" fill="white">
                                        <use xlink:href="#path-18"></use>
                                    </mask>
                                    <use id="Short-Hair" stroke="none" fill="#28354B" fill-rule="evenodd" xlink:href="#path-18"></use>
                                    <g id="Color/Hair/Blonde-Golden" stroke="none" fill="none" mask="url(#mask-19)" fill-rule="evenodd">
                                        <g transform="translate(0.601504, 0.000000)" fill="#D6B370" id="Color">
                                            <rect x="0" y="0" width="159" height="169"></rect>
                                        </g>
                                    </g>
                                </g>
                            </g>
                        </g>
                    </g>
                    <text id="Back-end" font-family="IBMPlexSans, IBM Plex Sans" font-size="48" font-weight="normal" fill="#B1E2FF">
                        <tspan x="80.328" y="100">Back-end</tspan>
                    </text>
                    <circle id="Oval-Copy" stroke="#B1E2FF" stroke-width="3" cx="183" cy="183" r="183"></circle>
                </g>
                <circle id="Oval-Copy-2" stroke="#FF488E" stroke-width="3" fill="#FF488E" cx="516" cy="183" r="183"></circle>
                <text id="Front-end" font-family="IBMPlexSans, IBM Plex Sans" font-size="48" font-weight="normal" fill="#FFFFFF">
                    <tspan x="408.316" y="102">Front-end</tspan>
                </text>
                <g id="Group-2-Copy" transform="translate(436.000000, 115.000000)">
                    <g id="Body" transform="translate(19.272727, 21.728571)">
                        <mask id="mask-21" fill="white">
                            <use xlink:href="#path-20"></use>
                        </mask>
                        <use fill="#D0C6AC" xlink:href="#path-20"></use>
                        <g id="Skin/ðŸ‘¶ðŸ¿-01-Black" mask="url(#mask-21)" fill="#614335">
                            <g transform="translate(-19.272727, 0.000000)" id="Color">
                                <rect x="0" y="0" width="159" height="147"></rect>
                            </g>
                        </g>
                        <path d="M93.9545455,56.8084416 L93.9545455,61.637013 C93.9545455,80.2640714 78.8543311,95.3642857 60.2272727,95.3642857 C41.6002143,95.3642857 26.5,80.2640714 26.5,61.637013 L26.5,56.8084416 C26.5,75.4354999 41.6002143,90.5357143 60.2272727,90.5357143 C78.8543311,90.5357143 93.9545455,75.4354999 93.9545455,56.8084416 Z" id="Neck-Shadow" fill-opacity="0.100000001" fill="#000000" mask="url(#mask-21)"></path>
                    </g>
                    <g id="Clothing/Graphic-Shirt" transform="translate(0.000000, 102.607143)">
                        <mask id="mask-23" fill="white">
                            <use xlink:href="#path-22"></use>
                        </mask>
                        <use id="Clothes" fill="#E6E6E6" fill-rule="evenodd" xlink:href="#path-22"></use>
                        <g id="Color/Palette/Pink" mask="url(#mask-23)" fill="#FF488E" fill-rule="evenodd">
                            <rect id="ðŸ–Color" x="0" y="0" width="159" height="66"></rect>
                        </g>
                        <g id="Clothing/Graphic/Skull" mask="url(#mask-23)" fill="#FFFFFF" fill-rule="evenodd">
                            <g transform="translate(46.375000, 34.800000)" id="Fill-49">
                                <path d="M39.1692212,11.7761157 C38.990497,13.417147 35.7533076,14.3015195 34.5661437,13.222585 C34.019099,12.7252556 34.0095529,11.7017244 33.8889007,11.0353237 C33.6608549,9.77483275 33.4953892,8.51928387 33.4383777,7.23980492 C33.4036405,6.45713524 33.1952173,5.8307914 34.0647081,5.71426232 C34.594782,5.64351252 35.1405008,5.99049868 35.5737878,6.26517438 C37.0420314,7.19480597 39.3720759,9.89266238 39.1692212,11.7761157 M31.7288299,8.31743885 C31.899599,9.98708215 32.5208912,12.8904251 31.167466,14.2887742 C29.9577627,15.5386006 27.4717985,14.2994386 27.0979095,12.8277387 C26.6338628,11.0020297 28.4630021,8.82075086 29.5846692,7.58653097 C29.9291244,7.20729122 30.6909564,6.16061033 31.2865271,6.51097792 C31.5156336,6.64545456 31.7020478,8.05420797 31.7288299,8.31743885 M32.5927521,14.8355245 C32.9806951,13.9355454 36.7405337,16.6190958 34.9646934,17.8957135 C34.6751283,18.1040613 32.468918,18.7621385 32.0459726,18.4526081 C31.155003,17.8002533 32.3045129,15.5190924 32.5927521,14.8355245 M43.9950412,10.3566978 C43.7290762,1.21202584 31.8391404,-1.3669605 25.4854137,3.84355432 C23.0559306,5.83573348 21.6680334,8.27504099 21.6043927,11.3942749 C21.5502981,14.036728 21.9753648,16.5288377 24.0245948,18.345703 C24.9131779,19.1335749 25.5002632,19.6155579 25.9717346,20.6918913 C26.4657454,21.8184259 26.6911395,23.2537104 27.6168462,24.1383431 C28.1272975,24.6263086 28.8705677,25.0201145 29.5764489,24.7053819 C30.873393,24.1268983 30.4586679,22.355292 30.8516491,21.367656 C32.0735502,24.3037728 35.1781549,25.2401672 35.7416401,21.514878 C36.3600154,22.5896507 37.9767539,23.9971036 39.161001,22.820628 C39.6483826,22.3365641 39.7218345,21.5507731 39.8045674,20.9140249 C39.9514713,19.7841089 39.6961131,19.3401019 40.617312,18.5652355 C43.0409613,16.5267569 44.0814865,13.4410771 43.9950412,10.3566978"></path>
                            </g>
                        </g>
                    </g>
                    <g id="Face" transform="translate(45.772727, 49.492857)">
                        <g id="Mouth/Smile" transform="translate(1.204545, 31.385714)">
                            <mask id="mask-25" fill="white">
                                <use xlink:href="#path-24"></use>
                            </mask>
                            <use id="Mouth" fill-opacity="0.699999988" fill="#000000" fill-rule="evenodd" xlink:href="#path-24"></use>
                            <rect id="Teeth" fill="#FFFFFF" fill-rule="evenodd" mask="url(#mask-25)" x="23.4722222" y="1.22727273" width="18.6574074" height="9.81818182" rx="4.90909091"></rect>
                            <g id="Tongue" stroke-width="1" fill-rule="evenodd" mask="url(#mask-25)" fill="#FF4F6D">
                                <g transform="translate(22.870370, 14.727273)">
                                    <ellipse cx="6.62037037" cy="6.75" rx="6.62037037" ry="6.75"></ellipse>
                                    <ellipse cx="12.6388889" cy="6.75" rx="6.62037037" ry="6.75"></ellipse>
                                </g>
                            </g>
                        </g>
                        <g id="Nose/Default" transform="translate(16.863636, 24.142857)" fill="#000000" fill-opacity="0.16">
                            <path d="M9.71428571,4.66666667 C9.71428571,7.2439955 12.9762111,9.33333333 17,9.33333333 C21.0237889,9.33333333 24.2857143,7.2439955 24.2857143,4.66666667" id="Nose"></path>
                        </g>
                        <g id="Eyes/Default-ðŸ˜€" transform="translate(0.000000, 4.828571)" fill="#000000" fill-opacity="0.599999964">
                            <ellipse id="Eye" cx="17.9464286" cy="13.5" rx="3.58928571" ry="3.68181818"></ellipse>
                            <ellipse id="Eye" cx="49.0535714" cy="13.5" rx="3.58928571" ry="3.68181818"></ellipse>
                        </g>
                        <g id="Eyebrow/Outline/Default" fill="#000000" fill-opacity="0.599999964">
                            <g id="I-Browse" transform="translate(7.178571, 3.500000)">
                                <path d="M2.17166464,6.50916977 C4.51361951,3.29575559 10.9341127,1.49382171 16.4646678,2.8181886 C17.1063711,2.97185321 17.7543219,2.58916008 17.9119066,1.96341957 C18.0694912,1.33767906 17.6770355,0.705846376 17.0353322,0.55218177 C10.6125388,-0.98584377 3.17777388,1.10074902 0.221192507,5.1574969 C-0.161583437,5.6827067 -0.0352565914,6.41105564 0.503351414,6.78430979 C1.04195942,7.15756395 1.78888869,7.03437956 2.17166464,6.50916977 Z" id="Eyebrow" fill-rule="nonzero"></path>
                                <path d="M36.8680932,6.50916977 C39.2100481,3.29575559 45.6305413,1.49382171 51.1610964,2.8181886 C51.8027996,2.97185321 52.4507505,2.58916008 52.6083351,1.96341957 C52.7659198,1.33767906 52.373464,0.705846376 51.7317608,0.55218177 C45.3089673,-0.98584377 37.8742025,1.10074902 34.9176211,5.1574969 C34.5348451,5.6827067 34.661172,6.41105564 35.19978,6.78430979 C35.738388,7.15756395 36.4853173,7.03437956 36.8680932,6.50916977 Z" id="Eyebrow" fill-rule="nonzero" transform="translate(43.669735, 3.522866) scale(-1, 1) translate(-43.669735, -3.522866) "></path>
                            </g>
                        </g>
                    </g>
                    <g id="Top">
                        <mask id="mask-27" fill="white">
                            <use xlink:href="#path-26"></use>
                        </mask>
                        <g id="Mask"></g>
                        <g id="Top/Long-Hair/Dreads" mask="url(#mask-27)">
                            <g transform="translate(-0.602273, 0.000000)">
                                <g id="template-for-hairstyles" stroke-width="1" fill-rule="evenodd" transform="translate(37.894737, 52.510714)"></g>
                                <g id="Facial-Hair/-Blank" transform="translate(29.473684, 43.457143)"></g>
                                <g id="Hair" stroke-width="1" fill-rule="evenodd" transform="translate(9.624060, 8.450000)">
                                    <mask id="mask-29" fill="white">
                                        <use xlink:href="#path-28"></use>
                                    </mask>
                                    <use id="No-Woman" fill="#8D5A5A" xlink:href="#path-28"></use>
                                    <g id="Color/Hair/Black" mask="url(#mask-29)" fill="#2C1B18">
                                        <g transform="translate(-9.022556, -8.450000)" id="Color">
                                            <rect x="0" y="0" width="159" height="169"></rect>
                                        </g>
                                    </g>
                                    <path d="M51.6575848,112.22585 C51.4234135,110.931953 51.1223417,109.648369 50.8197195,108.39534 C48.9734477,100.748644 44.4612469,94.3634929 40.9995281,87.2215792 C40.5664065,86.3279717 40.2032167,85.4161262 39.8972539,84.4901189 C43.2198751,91.5299297 48.9096847,97.2330852 55.9398496,100.572752 L55.9398496,111.762158 C54.4944381,111.854811 53.0661163,112.010275 51.6575848,112.22585 Z M97.918732,114.437405 C93.7773487,112.975136 89.3800335,112.054972 84.8120301,111.762158 L84.8120301,100.572752 C91.3678037,97.4584439 96.7580115,92.2888586 100.149979,85.8966706 C100.106088,87.6818362 100.148349,89.4570965 100.375787,91.1728326 C101.019547,96.0280425 102.782774,100.413764 101.964425,105.405224 C101.441218,108.599213 99.9044636,111.638446 97.918732,114.437405 Z" id="Shadows" fill-opacity="0.24" fill="#000000" mask="url(#mask-29)"></path>
                                    <path d="M29.6906798,65.335585 C29.615482,63.8736304 28.4996106,58.9757556 29.8878291,58.1295758 C31.4094422,57.2014198 31.0923033,62.7809773 31.1079967,63.352632 C31.1341525,64.2805157 31.8364355,71.2806311 30.5502245,71.2495836 C29.2679369,71.2188085 29.7400489,66.2893415 29.6906798,65.335585 Z M34.763955,100.1919 C34.7587238,100.803862 34.1188878,100.766823 33.6621423,100.606684 C33.0981581,100.40896 33.4434145,99.1074176 33.4136623,98.680651 C33.335195,97.5585845 32.7983474,94.2517565 33.6183314,93.3252345 C35.2576455,91.4732801 34.7704939,99.3296521 34.763955,100.1919 Z M19.3209553,108.136758 C20.4812915,108.103804 19.4072694,85.3024318 17.6237714,85.32776 C16.371236,85.3454625 18.4427746,108.158818 19.3209553,108.136758 Z M20.663532,119.818641 C19.2213671,119.818641 19.4865214,124.926222 20.3359307,125.334469 C21.6231225,125.95324 22.2766903,119.818641 20.663532,119.818641 Z M29.8284555,121.954598 C29.8412064,122.592978 29.1196336,122.603055 28.6380401,122.403425 C28.0913841,122.176833 28.3202472,120.287839 28.2986687,119.868426 C28.2306636,118.548364 27.0856939,113.427165 28.1270213,112.486209 C29.3144942,111.413437 29.340323,112.59079 29.6597506,113.390671 C30.6003782,115.746193 29.7777786,119.445745 29.8284555,121.954598 Z M114.431517,73.8368184 C114.49756,74.7194926 115.074295,80.4866966 114.116012,80.9262634 C112.466563,81.6831136 113.17702,78.1194631 113.183559,77.6591979 C113.247967,73.1703872 112.600938,68.7191602 112.108883,64.254316 C112.015376,63.4065021 110.529727,56.8756393 111.617808,56.3344873 C113.246332,55.5248019 113.003411,57.6899545 113.096591,58.3926078 C113.77566,63.5040021 114.075798,68.7011854 114.431517,73.8368184 Z M112.49504,93.908001 C110.971792,93.605152 110.174695,98.7930755 110.869785,99.3494789 C112.022928,100.273005 114.087274,94.2255567 112.49504,93.908001 Z M112.33379,116.721765 C111.648835,116.585047 106.659618,126.217389 107.070264,126.762081 C107.851995,127.799448 114.787203,117.21335 112.33379,116.721765 Z M100.049657,121.172147 C98.9782508,120.687916 94.435317,127.661341 95.5949994,128.185063 C96.6464621,128.65949 101.346331,121.755785 100.049657,121.172147 Z M125.368593,95.0306122 C124.074862,95.0306122 124.132405,102.166084 125.12796,102.616272 C126.15719,103.081439 126.897726,95.0306122 125.368593,95.0306122 Z M107.151641,29.4805488 C106.785787,28.9554652 102.835936,24.2776462 105.665011,24.9459839 C107.043094,25.2714376 108.942005,29.3838659 109.563532,30.6260371 C109.920885,31.3395842 111.960056,34.5246735 109.799261,34.2991708 C109.211409,34.2381653 107.6401,30.1823851 107.151641,29.4805488 Z M93.2618048,20.1330267 C92.7527477,20.3628869 92.7612484,20.5785851 93.2873067,20.779849 C93.7966907,20.5499888 93.7878631,20.3345629 93.2618048,20.1330267 Z M42.4775264,25.040025 C41.2714175,26.1525594 36.7373113,32.5957268 35.1836573,32.6602729 C32.35262,32.7779264 37.7570602,27.2130757 38.3700865,26.5049755 C38.6437414,26.1874198 39.8652168,24.6391314 40.6086952,24.2583913 C41.3672131,23.8697533 43.8830732,23.7398441 42.4775264,25.040025 Z M26.0174588,42.2382816 C24.7044381,41.9795527 22.5076787,48.4338862 23.2740433,49.2127965 C24.4311101,50.3896046 27.4890489,42.5313262 26.0174588,42.2382816 Z M41.0182622,114.070392 C41.2664152,114.879805 43.8041808,120.757582 43.1663064,121.531045 C42.1910224,122.712483 41.9111554,121.038099 41.5920548,120.343616 C40.8835598,118.801319 39.0428461,115.00454 39.3387335,113.381084 C39.6261202,111.80665 40.7674935,113.259345 41.0182622,114.070392 Z M36.0819453,127.84621 C34.7015734,127.84621 34.8607968,133.762387 35.6827425,134.113986 C36.9558756,134.658406 37.7752057,127.84621 36.0819453,127.84621 Z M133.408164,122.794514 C133.490227,123.158641 134.643698,126.151998 133.009615,125.718423 C132.069968,125.469226 131.92513,122.830464 131.685151,122.030583 C130.945923,119.564488 128.509184,116.50032 128.297649,114.066906 C128.093307,111.715197 129.404693,112.611488 130.412018,114.603428 C131.757079,117.263707 132.765712,119.957756 133.408164,122.794514 Z M121.557302,122.495314 C120.275014,122.489595 120.212894,128.997853 121.014896,129.377232 C122.135999,129.90749 123.19302,122.495314 121.557302,122.495314 Z M125.262924,69.202139 C126.214341,68.9532146 123.211983,61.1592099 122.148423,61.2449989 C120.527745,61.3762698 123.818143,69.5757981 125.262924,69.202139 Z M109.133302,103.057909 C108.623918,103.287769 108.632745,103.503467 109.158804,103.704731 C109.667861,103.474871 109.65936,103.259173 109.133302,103.057909 Z M94.566096,136.399598 C95.0434391,136.399598 95.2405884,135.660995 94.5353629,135.644382 C94.069136,135.648194 93.8229446,136.399598 94.566096,136.399598 Z M35.2989063,102.986636 C35.3165615,101.834611 33.8135844,102.679429 33.8230658,103.651433 C33.8426827,105.591083 35.2671924,104.705413 35.2989063,102.986636 Z M31.5902441,74.168754 C31.1066889,74.168754 30.9085588,74.9149827 31.6209772,74.9326852 C32.0924353,74.9291447 32.3412422,74.168754 31.5902441,74.168754 Z M20.0821215,111.89775 C20.035368,110.726117 19.0594301,111.923895 19.1140303,111.92553 C19.2873124,111.929887 20.1187396,112.780969 20.0821215,111.89775 Z M22.6162906,50.7381806 C21.1921078,50.7381806 21.3987385,54.2108675 22.3076523,54.4336467 C23.8233803,54.8053993 24.0306649,50.7381806 22.6162906,50.7381806 Z M30.2032679,125.73953 C28.8284542,125.73953 28.7356012,130.45575 29.6844025,130.749067 C31.1586082,131.204157 31.6349705,125.73953 30.2032679,125.73953 Z M18.9213602,129.123378 C18.3969366,129.359502 18.4054372,129.581736 18.9468621,129.789264 C19.4716126,129.55314 19.462785,129.33145 18.9213602,129.123378 Z M121.176245,131.145739 C119.780834,131.145739 119.835434,136.911854 120.692036,137.301309 C121.889317,137.846001 122.790384,131.145739 121.176245,131.145739 Z M107.034953,136.504642 C105.584942,136.213776 104.825443,140.974388 105.501243,141.508459 C106.61548,142.388954 108.524199,136.803133 107.034953,136.504642 Z M94.7158379,140.904477 C93.5143063,140.904477 93.8095397,143.062004 94.5026682,143.3831 C95.7022381,143.938686 96.0566491,140.904477 94.7158379,140.904477 Z M52.0177528,11.7751291 C51.0123896,11.7751291 44.703286,14.6385774 47.0612305,15.486936 C48.5027415,16.0054832 54.5787316,11.7751291 52.0177528,11.7751291 Z" id="Highlights" fill-opacity="0.300000012" fill="#FFFFFF" mask="url(#mask-29)"></path>
                                </g>
                                <g id="Accessory" stroke-width="1" fill-rule="evenodd" transform="translate(26.466165, 19.917857)"></g>
                            </g>
                        </g>
                    </g>
                </g>
                <text id="HTML,-CSS,-JavaScrip" font-family="IBMPlexSans, IBM Plex Sans" font-size="18" font-weight="normal" fill="#FF488E">
                    <tspan x="425.235" y="439">HTML, CSS, JavaScript</tspan>
                </text>
                <text id="Bridge-design-&amp;-back" font-family="IBMPlexSans, IBM Plex Sans" font-size="18" font-weight="normal" fill="#FF488E">
                    <tspan x="366.303" y="400">Bridge design &amp; back-end development</tspan>
                </text>
            </g>
        </g>
    </g>
</svg>