<svg xmlns="http://www.w3.org/2000/svg" width="488" height="78" viewBox="0 0 488 78">
  <g fill="none" fill-rule="evenodd" transform="translate(-1)">
    <g transform="translate(121.667)">
      <path fill="#9AEAC3" fill-rule="nonzero" d="M7.01016957,9.54879502 C0.932437529,14.5043819 -1.74666251,21.1065866 1.20273917,24.4773657 C1.83066559,25.1841233 2.66455062,25.7136898 3.60783523,26.0047445 C4.33740589,26.2336636 5.10140965,26.3575193 5.87252985,26.3718833 C12.6019195,18.4090011 23.4570449,10.0927115 33.7807993,6.02092741 C33.7778698,6.05128541 20.9921266,14.0706839 11.8015837,24.3095988 C11.5196007,24.6282765 3.94271099,33.1015686 1.52611628,40.9944373 L5.32414071,43 C6.19982587,39.5448062 7.60974476,36.221574 9.5112913,33.1307274 C9.70601952,33.8652616 10.0616905,34.555984 10.5567591,35.1610533 C13.3483913,38.6512721 20.8785397,37.3084253 27.0470232,32.4417672 C42.4716264,20.272401 43,0.436843101 43,0.436843101 C43,0.436843101 22.4325534,-3.02623785 7.01016957,9.54879502 Z"/>
      <text fill="#7E7E7E" font-family="Montserrat-Light, Montserrat" font-size="15" font-weight="300">
        <tspan x="1" y="77">Good</tspan>
      </text>
    </g>
    <g transform="translate(219.333)">
      <g fill="#9AEAC3" fill-rule="nonzero">
        <path d="M7.01016957 9.54879502C.932437529 14.5043819-1.74666251 21.1065866 1.20273917 24.4773657 1.83066559 25.1841233 2.66455062 25.7136898 3.60783523 26.0047445 4.33740589 26.2336636 5.10140965 26.3575193 5.87252985 26.3718833 12.6019195 18.4090011 23.4570449 10.0927115 33.7807993 6.02092741 33.7778698 6.05128541 20.9921266 14.0706839 11.8015837 24.3095988 11.5196007 24.6282765 3.94271099 33.1015686 1.52611628 40.9944373L5.32414071 43C6.19982587 39.5448062 7.60974476 36.221574 9.5112913 33.1307274 9.70601952 33.8652616 10.0616905 34.555984 10.5567591 35.1610533 13.3483913 38.6512721 20.8785397 37.3084253 27.0470232 32.4417672 42.4716264 20.272401 43 .436843101 43 .436843101 43 .436843101 22.4325534-3.02623785 7.01016957 9.54879502zM50.0101696 9.54879502C43.9324375 14.5043819 41.2533375 21.1065866 44.2027392 24.4773657 44.8306656 25.1841233 45.6645506 25.7136898 46.6078352 26.0047445 47.3374059 26.2336636 48.1014097 26.3575193 48.8725299 26.3718833 55.6019195 18.4090011 66.4570449 10.0927115 76.7807993 6.02092741 76.7778698 6.05128541 63.9921266 14.0706839 54.8015837 24.3095988 54.5196007 24.6282765 46.942711 33.1015686 44.5261163 40.9944373L48.3241407 43C49.1998259 39.5448062 50.6097448 36.221574 52.5112913 33.1307274 52.7060195 33.8652616 53.0616905 34.555984 53.5567591 35.1610533 56.3483913 38.6512721 63.8785397 37.3084253 70.0470232 32.4417672 85.4716264 20.272401 86 .436843101 86 .436843101 86 .436843101 65.4325534-3.02623785 50.0101696 9.54879502z"/>
      </g>
      <text fill="#7E7E7E" font-family="Montserrat-Light, Montserrat" font-size="15" font-weight="300">
        <tspan x="19" y="77">Better</tspan>
      </text>
    </g>
    <g transform="translate(360)">
      <g fill="#9AEAC3" fill-rule="nonzero">
        <path d="M7.01016957 9.54879502C.932437529 14.5043819-1.74666251 21.1065866 1.20273917 24.4773657 1.83066559 25.1841233 2.66455062 25.7136898 3.60783523 26.0047445 4.33740589 26.2336636 5.10140965 26.3575193 5.87252985 26.3718833 12.6019195 18.4090011 23.4570449 10.0927115 33.7807993 6.02092741 33.7778698 6.05128541 20.9921266 14.0706839 11.8015837 24.3095988 11.5196007 24.6282765 3.94271099 33.1015686 1.52611628 40.9944373L5.32414071 43C6.19982587 39.5448062 7.60974476 36.221574 9.5112913 33.1307274 9.70601952 33.8652616 10.0616905 34.555984 10.5567591 35.1610533 13.3483913 38.6512721 20.8785397 37.3084253 27.0470232 32.4417672 42.4716264 20.272401 43 .436843101 43 .436843101 43 .436843101 22.4325534-3.02623785 7.01016957 9.54879502zM50.0101696 9.54879502C43.9324375 14.5043819 41.2533375 21.1065866 44.2027392 24.4773657 44.8306656 25.1841233 45.6645506 25.7136898 46.6078352 26.0047445 47.3374059 26.2336636 48.1014097 26.3575193 48.8725299 26.3718833 55.6019195 18.4090011 66.4570449 10.0927115 76.7807993 6.02092741 76.7778698 6.05128541 63.9921266 14.0706839 54.8015837 24.3095988 54.5196007 24.6282765 46.942711 33.1015686 44.5261163 40.9944373L48.3241407 43C49.1998259 39.5448062 50.6097448 36.221574 52.5112913 33.1307274 52.7060195 33.8652616 53.0616905 34.555984 53.5567591 35.1610533 56.3483913 38.6512721 63.8785397 37.3084253 70.0470232 32.4417672 85.4716264 20.272401 86 .436843101 86 .436843101 86 .436843101 65.4325534-3.02623785 50.0101696 9.54879502zM93.0101696 9.54879502C86.9324375 14.5043819 84.2533375 21.1065866 87.2027392 24.4773657 87.8306656 25.1841233 88.6645506 25.7136898 89.6078352 26.0047445 90.3374059 26.2336636 91.1014097 26.3575193 91.8725299 26.3718833 98.6019195 18.4090011 109.457045 10.0927115 119.780799 6.02092741 119.77787 6.05128541 106.992127 14.0706839 97.8015837 24.3095988 97.5196007 24.6282765 89.942711 33.1015686 87.5261163 40.9944373L91.3241407 43C92.1998259 39.5448062 93.6097448 36.221574 95.5112913 33.1307274 95.7060195 33.8652616 96.0616905 34.555984 96.5567591 35.1610533 99.3483913 38.6512721 106.87854 37.3084253 113.047023 32.4417672 128.471626 20.272401 129 .436843101 129 .436843101 129 .436843101 108.432553-3.02623785 93.0101696 9.54879502z"/>
      </g>
      <text fill="#7E7E7E" font-family="Montserrat-Light, Montserrat" font-size="15" font-weight="300">
        <tspan x="48" y="77">Best</tspan>
      </text>
    </g>
    <path fill="#E5E9EB" fill-rule="nonzero" d="M31.0101696,9.54879502 C24.9324375,14.5043819 22.2533375,21.1065866 25.2027392,24.4773657 C25.8306656,25.1841233 26.6645506,25.7136898 27.6078352,26.0047445 C28.3374059,26.2336636 29.1014097,26.3575193 29.8725299,26.3718833 C36.6019195,18.4090011 47.4570449,10.0927115 57.7807993,6.02092741 C57.7778698,6.05128541 44.9921266,14.0706839 35.8015837,24.3095988 C35.5196007,24.6282765 27.942711,33.1015686 25.5261163,40.9944373 L29.3241407,43 C30.1998259,39.5448062 31.6097448,36.221574 33.5112913,33.1307274 C33.7060195,33.8652616 34.0616905,34.555984 34.5567591,35.1610533 C37.3483913,38.6512721 44.8785397,37.3084253 51.0470232,32.4417672 C66.4716264,20.272401 67,0.436843101 67,0.436843101 C67,0.436843101 46.4325534,-3.02623785 31.0101696,9.54879502 Z"/>
    <text fill="#7E7E7E" font-family="Montserrat-Light, Montserrat" font-size="15" font-weight="300">
      <tspan x="0" y="77">Non-Green</tspan>
    </text>
    <path stroke="#E5E9EB" stroke-linecap="square" d="M90.5,2.5 L90.5,72.5"/>
  </g>
</svg>
