<svg xmlns="http://www.w3.org/2000/svg" width="1162" height="287" viewBox="0 0 1162 287">
  <g fill="none" fill-rule="evenodd">
    <g transform="translate(51 46)">
      <path fill="#9AEAC3" d="M47.0643348,26.3132866 L118.315114,10.1544308 L117.327754,5.79922754 C117.053426,4.55956205 115.803003,3.78073314 114.574317,4.05493448 L47.7992616,19.0950101 C46.5596279,19.3693067 45.7807514,20.6089722 46.054921,21.8485424 C46.3949357,23.3294391 46.7241614,24.8323899 47.0643348,26.3132866 Z M46.7101491,15.362078 L114.329926,0.146521673 C117.555068,-0.577441586 120.769263,1.45193709 121.493401,4.67720609 L128.580082,35.9968479 L124.345685,35.9968479 L121.131332,21.8125214 L49.8803939,37.9714561 L54.290431,57.4214256 L54.6853432,59.1438232 C54.8389289,59.8349908 55.5300648,60.2846575 56.2321484,60.1200923 L56.7585921,59.9994767 L56.7585921,64.1461651 L56.6817993,64.1690601 C54.005155,64.7724078 51.3394585,63.0720802 50.7251155,60.4063837 L42.1574739,22.5375001 C41.795405,20.924818 42.0587855,19.4110463 42.9363504,18.0068949 C43.8139153,16.6026642 45.0974987,15.7250195 46.7099905,15.3629983 L46.7101491,15.362078 Z M63.9896857,37 C60.6877507,37 58,39.6987619 58,43.0007762 L58,81.9666397 C58,85.2685589 60.6877507,87.9563254 63.9896857,87.9563254 L133.32096,87.9563254 C136.622895,87.9563254 139.321434,85.2576587 139.321434,81.9666397 L139.321434,43.0007762 C139.321434,39.6987619 136.622895,37 133.32096,37 L63.9896857,37 Z M132.581707,54.8528382 C132.581707,52.2090214 132.581707,49.5653155 132.581707,46.9214034 C132.581707,46.4057964 132.175689,46 131.660193,46 C125.7473,46 119.834407,46 113.921515,46 C113.416808,46 113,46.4167917 113,46.9214034 C113,49.5653155 113,52.2090214 113,54.8528382 C113,55.3575451 113.416808,55.7743369 113.921515,55.7743369 C119.834407,55.7743369 125.7473,55.7743369 131.660193,55.7743369 C132.153793,55.7743369 132.581707,55.3684453 132.581707,54.8528382 Z M118.932621,78.6860263 C118.416966,78.6860263 118,78.2691394 118,77.7645118 L118,75.9215938 C118,75.4168869 118.416966,75 118.932621,75 L131.076367,75 C131.581074,75 131.997882,75.4168869 131.997882,75.9215938 L131.997882,77.7645118 C131.997882,78.2691394 131.581074,78.6860263 131.076367,78.6860263 L118.932621,78.6860263 Z M101.921515,78.6749358 C101.416808,78.6749358 101,78.2580488 101,77.7534213 L101,75.9214034 C101,75.4057964 101.416808,75 101.921515,75 L114.076367,75 C114.580915,75 114.997882,75.4167917 114.997882,75.9214034 L114.997882,77.7534213 C114.997882,78.2580488 114.580915,78.6749358 114.076367,78.6749358 L101.921515,78.6749358 Z M84.9213558,78.6749358 C84.4168076,78.6749358 84,78.2580488 84,77.7534213 L84,75.9214034 C84,75.4057964 84.4168076,75 84.9213558,75 L97.0765257,75 C97.5809153,75 97.9978816,75.4167917 97.9978816,75.9214034 L97.9978816,77.7534213 C97.9978816,78.2580488 97.5809153,78.6749358 97.0765257,78.6749358 L84.9213558,78.6749358 Z M67.9215145,78.6749358 C67.4169663,78.6749358 67,78.2580488 67,77.7534213 L67,75.9214034 C67,75.4057964 67.4169663,75 67.9215145,75 L80.0765257,75 C80.581074,75 80.9978816,75.4167917 80.9978816,75.9214034 L80.9978816,77.7534213 C80.9978816,78.2580488 80.581074,78.6749358 80.0765257,78.6749358 L67.9215145,78.6749358 Z"/>
      <text fill="#4A4A4A" font-family="Montserrat-Light, Montserrat" font-size="15" font-weight="300">
        <tspan x="3.163" y="123">Make a green purchase </tspan> <tspan x="2.075" y="142">(local, organic produce).</tspan>
      </text>
    </g>
    <path fill="#E5E9EB" fill-rule="nonzero" d="M59.9998,19.0000441 C59.9998,18.5372441 59.7199,17.9227441 59.43591,17.6245441 L43.43621,0.624224104 C42.68921,-0.148075896 41.47901,-0.237575896 40.60811,0.546224104 C39.82951,1.2469241 39.81011,2.6135241 40.53011,3.3744241 L53.37361,16.9996441 L2,16.9996441 C0.8954,16.9996441 0,17.8950441 0,18.9996441 C0,20.1042441 0.8954,20.9997441 2,20.9997441 L53.37361,20.9997441 L40.53011,34.6249441 C39.81021,35.3857441 39.86131,36.7187441 40.60811,37.4530441 C41.39661,38.2282441 42.70061,38.1592441 43.43621,37.3750441 L59.43591,20.3748441 C59.90601,19.9137441 59.99191,19.4696441 59.9998,19.0000441 Z" transform="translate(302 125)"/>
    <path fill="#E5E9EB" fill-rule="nonzero" d="M59.9998,19.0000441 C59.9998,18.5372441 59.7199,17.9227441 59.43591,17.6245441 L43.43621,0.624224104 C42.68921,-0.148075896 41.47901,-0.237575896 40.60811,0.546224104 C39.82951,1.2469241 39.81011,2.6135241 40.53011,3.3744241 L53.37361,16.9996441 L2,16.9996441 C0.8954,16.9996441 0,17.8950441 0,18.9996441 C0,20.1042441 0.8954,20.9997441 2,20.9997441 L53.37361,20.9997441 L40.53011,34.6249441 C39.81021,35.3857441 39.86131,36.7187441 40.60811,37.4530441 C41.39661,38.2282441 42.70061,38.1592441 43.43621,37.3750441 L59.43591,20.3748441 C59.90601,19.9137441 59.99191,19.4696441 59.9998,19.0000441 Z" transform="translate(768 125)"/>
    <g transform="translate(432 46)">
      <text fill="#4A4A4A" font-family="Montserrat-Light, Montserrat" font-size="15" font-weight="300">
        <tspan x="15.188" y="123">Receive push notification </tspan> <tspan x="35.1" y="142">praising sustainable </tspan> <tspan x="73.32" y="161">purchase.</tspan>
      </text>
      <path fill="#9AEAC3" fill-rule="nonzero" d="M154.770042,23.6099423 C154.115626,21.5118136 152.199335,20.10307 150.001295,20.10307 C149.495746,20.10307 148.994194,20.1790023 148.508627,20.331866 L141.630761,22.4819483 L141.630761,6.30637533 C141.630761,2.32192907 139.154969,0 135.393324,0 L105.526962,0 C101.687387,0 98.9917908,2.24999323 98.9917908,6.30637533 L98.9917908,37.2487778 C95.5088972,38.7624277 93.0790643,39.8354707 92.5575295,40.1002345 C88.3532793,42.242324 85.1811085,47.159938 84.4667457,49.1441682 C83.5935245,51.1244021 64,99.9108893 64,99.9108893 L104.614776,99.9108893 C104.614776,99.9108893 114.452002,95.7865678 119.686333,90.0736632 C121.892366,87.6678089 123.653795,84.4087157 124.874706,81.7171164 L135.710042,81.7171164 C139.086031,81.7171164 141.63176,79.5410572 141.63176,75.1999291 L141.63176,71.511219 L145.983878,71.511219 C148.74042,71.511219 150.981421,69.2702178 150.981421,66.5146755 C150.981421,63.758134 148.739421,61.5181319 145.983878,61.5181319 L141.63176,61.5181319 L141.63176,59.8506191 L146.102772,59.8506191 C148.858315,59.8506191 151.100315,57.6086188 151.100315,54.8540756 C151.100315,52.0975341 148.858315,49.8555338 146.102772,49.8555338 L141.63176,49.8555338 L141.63176,48.1900192 L146.102772,48.1900192 C148.858315,48.1900192 151.100315,45.9480189 151.100315,43.1924766 C151.100315,40.4359351 148.858315,38.1949339 146.102772,38.1949339 L141.63176,38.1949339 L141.63176,32.9496122 L151.492965,29.8683604 C152.76583,29.4727132 153.809898,28.6004912 154.429346,27.4175462 C155.046795,26.2375986 155.167687,24.8848052 154.770042,23.6099423 Z M120.279804,77.4619116 C119.096859,77.4619116 118.137714,76.5017679 118.137714,75.318823 C118.137714,74.134879 119.09586,73.1757344 120.279804,73.1757344 C121.464747,73.1757344 122.421893,74.134879 122.421893,75.318823 C122.421893,76.5017679 121.464747,77.4619116 120.279804,77.4619116 Z M137.138767,70.1444381 L111.728431,70.1444381 C111.738422,72.5912557 111.520616,75.9412679 110.596441,79.4901026 C108.742094,86.6137491 102.634542,90.6301668 102.374773,90.7980171 C102.135986,90.9538781 101.866227,91.0278121 101.601463,91.0278121 C101.134879,91.0278121 100.675289,90.7980171 100.401533,90.3763931 C99.9729157,89.7129848 100.162746,88.8317708 100.825156,88.4001558 C100.878108,88.3671852 106.253314,84.7923735 107.833904,78.768746 C109.514406,72.3654571 108.675154,66.6895195 108.667161,66.6325703 C108.650176,66.5116781 108.653174,66.3957815 108.666162,66.2788858 L124.922663,66.2788858 C128.25569,66.2788858 131.586719,64.2726751 131.586719,60.3301914 C131.586719,56.3877077 128.651337,53.903923 124.922663,53.903923 L97.3182834,53.903923 L97.3182834,51.0474707 L103.4658,51.0474707 L103.4658,10.8303404 L137.141765,10.8303404 L137.141765,70.1444381 L137.138767,70.1444381 Z"/>
    </g>
    <g transform="translate(911 56)">
      <text fill="#4A4A4A" font-family="Montserrat-Light, Montserrat" font-size="15" font-weight="300">
        <tspan x="5.2" y="103">Open the planIt app </tspan> <tspan x="3.25" y="122">and check out green </tspan> <tspan x="2.013" y="141">score &amp; status of tree.</tspan>
      </text>
      <path fill="#9AEAC3" fill-rule="nonzero" d="M58.0858495,15.10042 C48.4745524,22.937162 44.237836,33.3778579 48.9020061,38.7083922 C49.8950061,39.8260554 51.213708,40.6635095 52.7054139,41.1237821 C53.8591535,41.4857937 55.0673455,41.6816585 56.2867914,41.7043735 C66.9286169,29.1119087 84.0948616,15.960567 100.420799,9.5214666 C100.416166,9.5694746 80.1968514,22.2513141 65.6629696,38.4430865 C65.2170429,38.9470419 53.2349848,52.3466667 49.4133932,64.8284125 L55.4195714,68 C56.8043758,62.5359727 59.034015,57.2806287 62.0411118,52.3927782 C62.3490541,53.5543671 62.9115106,54.6466724 63.6944098,55.6035262 C68.1090839,61.1229419 80.0172255,58.9993702 89.7720368,51.3032597 C114.164432,32.0586807 115,0.690821648 115,0.690821648 C115,0.690821648 82.4747357,-4.78567846 58.0858495,15.10042 Z"/>
    </g>
  </g>
</svg>
